<mxfile host="app.diagrams.net" modified="2023-11-07T18:28:40.893Z" agent="Mozilla/5.0 (X11; Linux x86_64; rv:109.0) Gecko/20100101 Firefox/115.0" etag="GJ387SFNtsfhcCvMMdDx" version="22.0.8" type="device">
  <diagram name="Página-1" id="Nz3KfwvuemJbnzHaN6sH">
    <mxGraphModel dx="1434" dy="728" grid="1" gridSize="10" guides="1" tooltips="1" connect="1" arrows="1" fold="1" page="1" pageScale="1" pageWidth="1169" pageHeight="827" math="0" shadow="0">
      <root>
        <mxCell id="0" />
        <mxCell id="1" parent="0" />
        <mxCell id="BoHrUQ47x9xve0JIC9ZZ-1" value="&lt;div&gt;&lt;b&gt;Dirección ip&lt;/b&gt;&lt;/div&gt;&lt;div&gt;&lt;b&gt;origen&lt;/b&gt;&lt;/div&gt;&lt;div&gt;&lt;b&gt;(cliente)&lt;br&gt;&lt;/b&gt;&lt;/div&gt;" style="rounded=0;whiteSpace=wrap;html=1;fillColor=#fff2cc;strokeColor=#d6b656;" vertex="1" parent="1">
          <mxGeometry x="160" y="290" width="90" height="60" as="geometry" />
        </mxCell>
        <mxCell id="BoHrUQ47x9xve0JIC9ZZ-2" value="&lt;div&gt;&lt;b&gt;Dirección ip&lt;/b&gt;&lt;/div&gt;&lt;div&gt;&lt;b&gt;destino&lt;/b&gt;&lt;/div&gt;&lt;div&gt;&lt;b&gt;(servidor)&lt;br&gt;&lt;/b&gt;&lt;/div&gt;" style="rounded=0;whiteSpace=wrap;html=1;fillColor=#fff2cc;strokeColor=#d6b656;" vertex="1" parent="1">
          <mxGeometry x="250" y="290" width="90" height="60" as="geometry" />
        </mxCell>
        <mxCell id="BoHrUQ47x9xve0JIC9ZZ-3" value="&lt;font style=&quot;font-size: 25px;&quot;&gt;...&lt;/font&gt;" style="rounded=0;whiteSpace=wrap;html=1;fillColor=#fff2cc;strokeColor=#d6b656;" vertex="1" parent="1">
          <mxGeometry x="340" y="290" width="90" height="60" as="geometry" />
        </mxCell>
        <mxCell id="BoHrUQ47x9xve0JIC9ZZ-4" value="&lt;b&gt;&lt;font style=&quot;font-size: 14px;&quot;&gt;Protocolo IP&lt;/font&gt;&lt;/b&gt;" style="text;strokeColor=none;align=center;fillColor=none;html=1;verticalAlign=middle;whiteSpace=wrap;rounded=0;" vertex="1" parent="1">
          <mxGeometry x="60" y="305" width="60" height="30" as="geometry" />
        </mxCell>
        <mxCell id="BoHrUQ47x9xve0JIC9ZZ-5" value="&lt;div&gt;&lt;b&gt;Puerto destino&lt;br&gt;&lt;/b&gt;&lt;/div&gt;&lt;div&gt;&lt;b&gt;destino&lt;/b&gt;&lt;/div&gt;&lt;div&gt;&lt;b&gt;(servidor)&lt;br&gt;&lt;/b&gt;&lt;/div&gt;&lt;div&gt;&lt;b&gt;80&lt;br&gt;&lt;/b&gt;&lt;/div&gt;" style="rounded=0;whiteSpace=wrap;html=1;fillColor=#d5e8d4;strokeColor=#82b366;" vertex="1" parent="1">
          <mxGeometry x="520" y="170" width="90" height="60" as="geometry" />
        </mxCell>
        <mxCell id="BoHrUQ47x9xve0JIC9ZZ-6" value="&lt;div&gt;&lt;b&gt;Puerto origen&lt;br&gt;&lt;/b&gt;&lt;/div&gt;&lt;div&gt;&lt;b&gt;(cliente)&lt;br&gt;&lt;/b&gt;&lt;/div&gt;&lt;div&gt;&lt;b&gt;aleatorio&lt;br&gt;&lt;/b&gt;&lt;/div&gt;" style="rounded=0;whiteSpace=wrap;html=1;fillColor=#d5e8d4;strokeColor=#82b366;" vertex="1" parent="1">
          <mxGeometry x="430" y="170" width="90" height="60" as="geometry" />
        </mxCell>
        <mxCell id="BoHrUQ47x9xve0JIC9ZZ-8" value="" style="rounded=0;whiteSpace=wrap;html=1;strokeColor=#666666;" vertex="1" parent="1">
          <mxGeometry x="430" y="290" width="460" height="60" as="geometry" />
        </mxCell>
        <mxCell id="BoHrUQ47x9xve0JIC9ZZ-11" value="&lt;font style=&quot;font-size: 25px;&quot;&gt;...&lt;/font&gt;" style="rounded=0;whiteSpace=wrap;html=1;fillColor=#d5e8d4;strokeColor=#82b366;" vertex="1" parent="1">
          <mxGeometry x="600" y="170" width="90" height="60" as="geometry" />
        </mxCell>
        <mxCell id="BoHrUQ47x9xve0JIC9ZZ-12" value="" style="shape=flexArrow;endArrow=classic;html=1;rounded=0;fillColor=#d5e8d4;strokeColor=#82b366;" edge="1" parent="1">
          <mxGeometry width="50" height="50" relative="1" as="geometry">
            <mxPoint x="659.5" y="240" as="sourcePoint" />
            <mxPoint x="659.5" y="280" as="targetPoint" />
          </mxGeometry>
        </mxCell>
        <mxCell id="BoHrUQ47x9xve0JIC9ZZ-13" value="&lt;div&gt;&lt;b&gt;&lt;font style=&quot;font-size: 14px;&quot;&gt;Protocolo &lt;br&gt;&lt;/font&gt;&lt;/b&gt;&lt;/div&gt;&lt;div&gt;&lt;b&gt;&lt;font style=&quot;font-size: 14px;&quot;&gt;TCP&lt;br&gt;&lt;/font&gt;&lt;/b&gt;&lt;/div&gt;" style="text;strokeColor=none;align=center;fillColor=none;html=1;verticalAlign=middle;whiteSpace=wrap;rounded=0;" vertex="1" parent="1">
          <mxGeometry x="340" y="190" width="60" height="30" as="geometry" />
        </mxCell>
        <mxCell id="BoHrUQ47x9xve0JIC9ZZ-14" value="&lt;div&gt;&lt;b&gt;Petición o Respuesta&lt;/b&gt;&lt;/div&gt;&lt;div&gt;&lt;b&gt;HTTP&lt;/b&gt;&lt;/div&gt;&lt;div&gt;&lt;b&gt;1ª Línea /Cabecera&amp;nbsp; / Cuerpo&lt;br&gt;&lt;/b&gt;&lt;/div&gt;" style="rounded=0;whiteSpace=wrap;html=1;fillColor=#f8cecc;strokeColor=#b85450;" vertex="1" parent="1">
          <mxGeometry x="690" y="50" width="200" height="60" as="geometry" />
        </mxCell>
        <mxCell id="BoHrUQ47x9xve0JIC9ZZ-15" value="" style="rounded=0;whiteSpace=wrap;html=1;strokeColor=#666666;" vertex="1" parent="1">
          <mxGeometry x="690" y="170" width="200" height="60" as="geometry" />
        </mxCell>
        <mxCell id="BoHrUQ47x9xve0JIC9ZZ-16" value="" style="shape=flexArrow;endArrow=classic;html=1;rounded=0;fillColor=#f8cecc;strokeColor=#b85450;" edge="1" parent="1">
          <mxGeometry width="50" height="50" relative="1" as="geometry">
            <mxPoint x="789.5" y="120" as="sourcePoint" />
            <mxPoint x="789.5" y="160" as="targetPoint" />
          </mxGeometry>
        </mxCell>
        <mxCell id="BoHrUQ47x9xve0JIC9ZZ-17" value="&lt;div&gt;&lt;b&gt;&lt;font style=&quot;font-size: 14px;&quot;&gt;Protocolo HTTP&lt;/font&gt;&lt;/b&gt;&lt;/div&gt;&lt;div&gt;&lt;b&gt;&lt;font style=&quot;font-size: 14px;&quot;&gt;Nivel de Aplicación&lt;br&gt;&lt;/font&gt;&lt;/b&gt;&lt;/div&gt;" style="text;strokeColor=none;align=center;fillColor=none;html=1;verticalAlign=middle;whiteSpace=wrap;rounded=0;" vertex="1" parent="1">
          <mxGeometry x="520" y="65" width="160" height="30" as="geometry" />
        </mxCell>
      </root>
    </mxGraphModel>
  </diagram>
</mxfile>
